<?xml version="1.0" encoding="UTF-8" standalone="no"?>
<svg
   xmlns:dc="http://purl.org/dc/elements/1.1/"
   xmlns:cc="http://creativecommons.org/ns#"
   xmlns:rdf="http://www.w3.org/1999/02/22-rdf-syntax-ns#"
   xmlns:svg="http://www.w3.org/2000/svg"
   xmlns="http://www.w3.org/2000/svg"
   xmlns:sodipodi="http://sodipodi.sourceforge.net/DTD/sodipodi-0.dtd"
   xmlns:inkscape="http://www.inkscape.org/namespaces/inkscape"
   width="512"
   height="512"
   viewBox="0 0 135.46666 135.46667"
   version="1.1"
   id="svg8"
   inkscape:version="1.0.2 (e86c870879, 2021-01-15)"
   sodipodi:docname="logo.svg">
  <defs
     id="defs2" />
  <sodipodi:namedview
     id="base"
     pagecolor="#ffffff"
     bordercolor="#666666"
     borderopacity="1.0"
     inkscape:pageopacity="0.0"
     inkscape:pageshadow="2"
     inkscape:zoom="0.49497475"
     inkscape:cx="363.27582"
     inkscape:cy="306.6617"
     inkscape:document-units="px"
     inkscape:current-layer="layer1"
     inkscape:document-rotation="0"
     showgrid="false"
     units="px"
     inkscape:window-width="1366"
     inkscape:window-height="722"
     inkscape:window-x="0"
     inkscape:window-y="20"
     inkscape:window-maximized="1" />
  <metadata
     id="metadata5">
    <rdf:RDF>
      <cc:Work
         rdf:about="">
        <dc:format>image/svg+xml</dc:format>
        <dc:type
           rdf:resource="http://purl.org/dc/dcmitype/StillImage" />
        <dc:title></dc:title>
      </cc:Work>
    </rdf:RDF>
  </metadata>
  <g
     inkscape:label="Layer 1"
     inkscape:groupmode="layer"
     id="layer1">
    <circle
       style="fill:#f9f9f9;stroke:none;stroke-width:1.2;fill-opacity:1"
       id="path26"
       cx="68.241707"
       cy="67.043297"
       r="59.00127" />
    <path
       style="fill:#e11448;stroke:none;stroke-width:0.236361"
       d="M 64.33454,2.7681481 C 49.364823,4.7336824 36.302545,9.1386783 24.862178,19.489677 19.425393,24.408594 15.194994,30.327556 11.658791,36.703878 -2.2120805,61.714698 4.072299,94.936712 25.09854,113.95388 c 13.984561,12.6484 33.112346,18.49857 51.763155,16.0461 C 107.06467,126.02864 130.8301,99.950648 132.16104,69.558115 133.48727,39.266036 112.86923,11.819584 83.479816,4.4704469 77.473398,2.9684875 70.522245,1.955679 64.33454,2.7681481 m 0.709084,7.5307329 c 4.694609,-0.5539118 9.814671,0.146568 14.418048,1.067101 26.567498,5.312649 46.998808,30.575665 45.123988,57.955772 -1.8942,27.657359 -22.63727,50.071036 -50.32394,53.350066 -6.456213,0.76487 -13.059679,0.18319 -19.38164,-1.26808 -6.091506,-1.39831 -12.04025,-3.97275 -17.254384,-7.41039 C 29.396063,108.56767 22.602563,101.27475 18.068677,92.485173 6.9960898,71.018829 11.160778,43.571359 28.408546,26.543883 38.609433,16.472995 51.115551,11.942279 65.043624,10.298881 M 87.970683,53.958262 C 85.938684,51.07347 82.901438,48.652657 80.407116,46.158335 l -5.199951,-5.19995 c -1.809583,-1.809584 -3.806129,-4.635284 -6.145397,-5.742875 -1.504441,-0.712393 -3.390368,0.548832 -3.429132,2.200999 -0.05317,2.274505 3.535021,4.720137 5.001408,6.141614 2.41254,2.338797 4.797664,4.714938 7.173098,7.09108 0.966481,0.966717 2.037908,2.574921 3.33104,3.109806 1.84551,0.763211 4.849428,0.199253 6.832501,0.199253 M 63.625455,38.358408 C 58.655246,43.328616 52.305869,48.21728 48.261961,53.958262 l 6.8325,-0.199253 3.09468,-2.873446 5.830328,-5.751382 2.394341,-2.767083 -2.788355,-4.00869 M 34.553943,55.794553 c -3.043154,1.037628 -3.053553,7.331696 -7.1e-4,8.328905 1.65264,0.539849 3.71773,0.234706 5.436077,0.234706 H 50.625575 85.84343 97.42514 c 1.633731,0 3.76382,0.334216 5.17442,-0.680485 2.34589,-1.68762 1.62546,-7.451057 -1.39264,-8.002488 -4.723443,-0.863191 -10.320482,-0.0624 -15.127129,-0.0624 H 54.88008 40.934757 c -1.938165,0 -4.53365,-0.448142 -6.380814,0.181761 m 2.362669,10.454502 c 1.578184,6.610321 2.577285,13.416583 3.912019,20.090721 0.45854,2.292941 0.496358,6.421703 2.128906,8.191577 2.009546,2.178543 8.248305,1.026518 10.977098,1.026518 h 28.836096 c 2.617231,0 8.386813,1.078753 10.328286,-0.998627 1.669658,-1.78642 1.771529,-6.125778 2.221089,-8.45583 1.274933,-6.606774 2.42105,-13.318492 3.995926,-19.854359 -1.957072,-0.578612 -4.347396,-0.236361 -6.381758,-0.236361 H 80.643479 50.861937 c -4.247416,0 -9.878254,-0.965773 -13.945325,0.236361 m 30.490626,6.92539 c 3.578275,-0.510068 7.422221,2.52434 5.436313,6.301395 -0.685685,1.304242 -1.881437,1.488605 -3.023299,2.201471 -0.667721,0.416941 -1.056771,1.283914 -1.939346,1.283442 -1.356951,-7.09e-4 -1.831329,-2.458159 -1.007372,-3.301024 0.677175,-0.692303 1.875291,-0.48974 2.584612,-1.218916 0.419541,-0.431122 0.529686,-0.996026 0.165453,-1.501604 -1.436368,-1.993471 -3.425586,0.699867 -5.048207,0.218635 -3.531005,-1.047554 1.462603,-3.788165 2.831846,-3.983399 m 0.473431,11.197386 c 2.293652,0.0572 2.28987,3.570948 -0.0015,3.570948 -2.365977,0 -2.330051,-3.629329 0.0015,-3.570948 z"
       id="path24" />
  </g>
</svg>
