<?xml version="1.0" encoding="UTF-8" standalone="no"?>
<svg
   xmlns:dc="http://purl.org/dc/elements/1.1/"
   xmlns:cc="http://creativecommons.org/ns#"
   xmlns:rdf="http://www.w3.org/1999/02/22-rdf-syntax-ns#"
   xmlns:svg="http://www.w3.org/2000/svg"
   xmlns="http://www.w3.org/2000/svg"
   xmlns:sodipodi="http://sodipodi.sourceforge.net/DTD/sodipodi-0.dtd"
   xmlns:inkscape="http://www.inkscape.org/namespaces/inkscape"
   width="512"
   height="512"
   viewBox="0 0 135.46666 135.46667"
   version="1.1"
   id="svg8"
   inkscape:version="1.0.2 (e86c870879, 2021-01-15)"
   sodipodi:docname="logo-small.svg">
  <defs
     id="defs2" />
  <sodipodi:namedview
     id="base"
     pagecolor="#ffffff"
     bordercolor="#666666"
     borderopacity="1.0"
     inkscape:pageopacity="0.0"
     inkscape:pageshadow="2"
     inkscape:zoom="0.7"
     inkscape:cx="385.80602"
     inkscape:cy="266.00816"
     inkscape:document-units="px"
     inkscape:current-layer="layer1"
     inkscape:document-rotation="0"
     showgrid="false"
     units="px"
     inkscape:window-width="1366"
     inkscape:window-height="722"
     inkscape:window-x="0"
     inkscape:window-y="20"
     inkscape:window-maximized="1" />
  <metadata
     id="metadata5">
    <rdf:RDF>
      <cc:Work
         rdf:about="">
        <dc:format>image/svg+xml</dc:format>
        <dc:type
           rdf:resource="http://purl.org/dc/dcmitype/StillImage" />
        <dc:title></dc:title>
      </cc:Work>
    </rdf:RDF>
  </metadata>
  <g
     inkscape:label="Layer 1"
     inkscape:groupmode="layer"
     id="layer1">
    <path
       style="fill:#e11448;stroke:none;stroke-width:0.410948"
       d="M 102.62606,45.479392 C 99.093131,40.46376 93.812435,36.254823 89.475692,31.918079 l -9.040875,-9.040873 c -3.146224,-3.146226 -6.617511,-8.059118 -10.68467,-9.984827 -2.615691,-1.238599 -5.894651,0.954225 -5.962047,3.826759 -0.09244,3.954559 6.14615,8.206647 8.695678,10.678093 4.194553,4.06634 8.34144,8.197609 12.471479,12.328879 1.680369,1.680778 3.543201,4.476876 5.7915,5.406852 3.208689,1.326954 8.431439,0.34643 11.879303,0.34643 M 60.298322,18.356767 C 51.656887,26.998199 40.617568,35.497856 33.586643,45.479392 l 11.879299,-0.34643 5.380554,-4.995906 10.136877,-9.999618 4.162912,-4.810978 -4.847963,-6.969693 M 9.7532505,48.672052 c -5.2909679,1.804068 -5.3090481,12.747225 -0.00123,14.481019 2.8733565,0.938606 6.4638165,0.40807 9.4514135,0.40807 h 18.492701 61.231387 20.136488 c 2.84048,0 6.54395,0.581084 8.99649,-1.183122 4.07867,-2.934174 2.8261,-12.954751 -2.42131,-13.913495 -8.2124,-1.500784 -17.94367,-0.108491 -26.30072,-0.108491 H 45.09321 20.847228 c -3.369783,0 -7.882413,-0.779161 -11.0939775,0.316018 M 13.861096,66.84873 c 2.743903,11.493009 4.480986,23.32669 6.801616,34.93065 0.797239,3.98662 0.862991,11.16507 3.701415,14.24226 3.493889,3.78771 14.340883,1.78475 19.085288,1.78475 h 50.135767 c 4.550438,0 14.581698,1.87557 17.957238,-1.73626 2.90294,-3.10595 3.08006,-10.65056 3.86168,-14.7017 2.21666,-11.486838 4.20935,-23.15614 6.94751,-34.5197 -3.40266,-1.006001 -7.55859,-0.410948 -11.09562,-0.410948 H 89.886643 38.107081 c -7.384753,0 -17.174788,-1.679138 -24.245985,0.410948 m 53.012408,12.040803 c 6.221354,-0.886828 12.904616,4.388933 9.451825,10.955896 -1.192164,2.267615 -3.271153,2.588157 -5.256447,3.827579 -1.160931,0.724912 -1.837351,2.232272 -3.371837,2.231451 -2.359257,-0.0012 -3.184033,-4.273869 -1.751463,-5.739313 1.177368,-1.20367 3.260467,-0.851484 4.493726,-2.119263 0.729433,-0.749569 0.920936,-1.731737 0.287664,-2.610758 -2.497336,-3.465941 -5.955882,1.216821 -8.777046,0.380129 -6.139168,-1.821326 2.542949,-6.586279 4.923578,-6.925721 m 0.823129,19.468291 c 3.98785,0.09945 3.981274,6.208616 -0.0026,6.208616 -4.113596,0 -4.051134,-6.31012 0.0026,-6.208616 z"
       id="path24"
       sodipodi:nodetypes="csscccccccccccccccsccsccscsccscsscccscsccccsccccccsc" />
  </g>
</svg>
